<?xml version="1.0" encoding="utf-8"?>
<!-- Generator: Adobe Illustrator 25.0.1, SVG Export Plug-In . SVG Version: 6.00 Build 0)  -->
<svg version="1.1" xmlns="http://www.w3.org/2000/svg" xmlns:xlink="http://www.w3.org/1999/xlink" x="0px" y="0px"
	 viewBox="0 0 262.5 38.8" style="enable-background:new 0 0 262.5 38.8;" xml:space="preserve">
<style type="text/css">
	.st0{fill:#FFFFFF;}
	.st1{fill:none;}
</style>
<g id="Layer_1">
	<g>
		<path class="st0" d="M21.9,15.4h16.2V12c-2.5,0-7.4,0-10.1,0C24.2,12,21.9,15.4,21.9,15.4"/>
		<path class="st0" d="M7.7,17.6c1.9-2,3.4-2.2,3.4-2.2h4.5c0,0,1.7-1.7,4.8-4.9c3.1-3.2,5.3-2.7,5.3-2.7h12.4V4c0-2.2-1.8-4-4-4
			H4.3c-2.2,0-4,1.8-4,4v20.9C2.1,23.2,6.2,19.1,7.7,17.6"/>
		<path class="st0" d="M11.2,26.5c0,0,1.4-1.5,2.8-2.8c1.3-1.3,3.2-1.1,3.2-1.1h20.9v-3.5c-3.2,0-18.7,0-21.8,0
			c-3.5,0-5.1,2.3-5.1,2.3L0.4,32.3l-0.1,0v1.5c0,2.2,1.8,4,4,4h29.8c2.2,0,4-1.8,4-4v-7.4H11.2"/>
	</g>
	<path class="st0" d="M124.5,2.5v2.6h19.8c0,0,0.5,0.1,0.5,0.7c0,0.7,0,13.3,0,13.3h-3.3V8.8h-4.8V19h-4.1V8.7h-5v10.4H123v2.4h28.8
		V19h-1.7V4.5c0,0,0-2-2-2C146.1,2.5,124.5,2.5,124.5,2.5"/>
	<path class="st0" d="M196.8,1.9v2.5h19.9c0,0,0.4,0.1,0.4,0.6s0,3.8,0,3.8h-7V5.5h-5.6v3.2h-9v2.7h28.3V8.8h-1.2V3.7
		c0,0,0.1-1.8-2.4-1.8C217.8,1.9,196.8,1.9,196.8,1.9"/>
	<path class="st0" d="M209.8,19.5c-4.3,0-7.8-1.2-7.8-2.8c0-1.5,3.5-2.8,7.8-2.8c4.3,0,7.8,1.2,7.8,2.8
		C217.6,18.3,214.1,19.5,209.8,19.5 M209.7,11.9c-7.3,0-13.2,2.3-13.2,5.1c0,2.8,5.9,5.1,13.2,5.1c7.3,0,13.2-2.3,13.2-5.1
		C223,14.2,217,11.9,209.7,11.9z"/>
	<path class="st0" d="M73.2,10.5H57.3v-4h15.9V10.5z M73.2,2.4v2H57.3V2.3h-5.1c0,0,0,6.1,0,8c0,2.3,2.7,2.2,2.7,2.2h23.4V2.4H73.2z
		"/>
	<polyline class="st0" points="79.7,14.6 50.7,14.6 50.7,16.9 62.5,16.9 62.5,21.8 67.9,21.8 67.9,16.9 79.7,16.9 79.7,14.6 	"/>
	<path class="st0" d="M236.7,2.4h5.4v9.2c0.7,1.9,1.6,6.6,8.9,7.9h0.3v2c0,0-6.9,0.8-11.5-4.4h-0.5c0,0-3.8,4.2-9.2,4.2v-2
		c0,0,4.8-1,6.6-7.6V2.4"/>
	<polyline class="st0" points="261.5,8.1 257.6,8.1 257.6,1.7 252.2,1.7 252.2,22.3 257.6,22.3 257.6,10.6 261.5,10.6 261.5,8.1 	
		"/>
	<path class="st0" d="M93.8,2.5h5.5c0,0,0.1,3.9,3.2,6.1c3.1,2.2,4.9,2.4,4.9,2.4v2.1c0,0-5.9,0.6-10.9-3.9c0,0-4.1,4.3-10.7,3.8
		v-2.3C85.8,10.8,93.3,9.4,93.8,2.5"/>
	<polyline class="st0" points="116.8,5.8 113.5,5.8 113.5,2 108.1,2 108.1,14.5 113.5,14.5 113.5,8.5 116.8,8.5 116.8,5.8 	"/>
	<path class="st0" d="M87.2,14.5l5.5-0.1v5h21v2.6H90.6c0,0-3.4-0.1-3.4-2.8L87.2,14.5"/>
	<path class="st0" d="M160.2,1.5h26.7v2.4h-21.3v1.2h21.2v2.2h-21.3v0.9h21.3v2.1h-10.8v1.1h12.1v1.9h-29.3v-2.1h11.6v-1H163
		c0,0-2.8-0.2-2.8-2.6C160.2,5.2,160.2,1.5,160.2,1.5"/>
	<path class="st0" d="M173.7,20.8c-0.6,0-8.1,0.2-8-2.7c0.1-2.5,7.7-2.3,7.8-2.3c0,0,7.8-0.2,7.9,2.5
		C181.5,20.9,174.4,20.8,173.7,20.8 M173.5,14.2c-0.1,0-12.9-0.4-13,3.8c-0.1,4.8,12.3,4.5,13.3,4.5c1.1,0,13,0.2,12.9-4.1
		C186.6,13.9,173.5,14.2,173.5,14.2z"/>
	<path class="st0" d="M52.4,35.5h2.3c0.4,0,0.8-0.1,1-0.3c0.2-0.2,0.4-0.5,0.4-0.9c0-0.3-0.1-0.6-0.4-0.8c-0.2-0.1-0.5-0.2-0.9-0.2
		h-2.4V35.5 M52.4,31.8h2.2c0.4,0,0.7-0.1,0.9-0.2c0.2-0.2,0.4-0.4,0.4-0.7c0-0.3-0.1-0.6-0.3-0.7c-0.2-0.1-0.5-0.2-1-0.2h-2.2V31.8
		z M50.7,28.6H55c0.9,0,1.6,0.2,2.1,0.7c0.3,0.4,0.5,0.8,0.5,1.4c0,0.5-0.1,0.9-0.4,1.2c-0.1,0.2-0.4,0.3-0.6,0.5v0
		c0.5,0.2,0.8,0.4,1.1,0.8c0.2,0.3,0.3,0.7,0.3,1.2c0,0.3-0.1,0.6-0.2,1c-0.1,0.3-0.3,0.5-0.5,0.8c-0.3,0.3-0.6,0.4-0.9,0.5
		c-0.4,0.1-1,0.2-1.8,0.2h-3.8V28.6z"/>
	<path class="st0" d="M65.4,36.9h-1.6V36h0c-0.2,0.3-0.5,0.6-0.8,0.8c-0.3,0.2-0.7,0.3-1.2,0.3c-0.7,0-1.2-0.2-1.6-0.5
		c-0.4-0.4-0.6-1-0.6-1.7v-4.2h1.7v4c0,0.4,0.1,0.7,0.4,0.9c0.2,0.1,0.4,0.2,0.8,0.2c0.3,0,0.6-0.1,0.8-0.3c0.3-0.2,0.5-0.6,0.5-1.1
		v-3.7h1.7V36.9"/>
	<path class="st0" d="M71,32.6c0-0.3-0.1-0.4-0.3-0.6c-0.2-0.2-0.5-0.2-0.9-0.2c-0.4,0-0.7,0.1-0.8,0.2c-0.1,0.1-0.2,0.2-0.2,0.4
		c0,0.2,0.1,0.3,0.4,0.4c0.2,0.1,0.5,0.2,1,0.2c0.8,0.2,1.4,0.3,1.7,0.5c0.6,0.3,0.9,0.8,0.9,1.3c0,0.8-0.3,1.4-1,1.7
		c-0.5,0.3-1.1,0.4-1.8,0.4c-0.8,0-1.5-0.2-2-0.5c-0.6-0.4-1-0.9-1-1.7h1.7c0,0.3,0.1,0.5,0.3,0.7c0.2,0.2,0.6,0.3,1.1,0.3
		c0.4,0,0.7-0.1,0.9-0.2c0.1-0.1,0.2-0.3,0.2-0.4c0-0.2-0.1-0.3-0.4-0.5c-0.2-0.1-0.5-0.1-1-0.2c-0.8-0.2-1.4-0.3-1.7-0.5
		c-0.6-0.3-0.8-0.8-0.8-1.4c0-0.5,0.2-1,0.5-1.4c0.4-0.5,1.1-0.7,2-0.7c0.8,0,1.4,0.1,1.8,0.4c0.6,0.3,0.9,0.9,1,1.7H71"/>
	<path class="st0" d="M78.1,33.9C78,34,77.9,34,77.7,34.1c-0.2,0.1-0.4,0.1-0.8,0.2c-0.4,0.1-0.6,0.2-0.8,0.3
		c-0.2,0.1-0.3,0.4-0.3,0.7c0,0.3,0.1,0.5,0.3,0.6c0.1,0.1,0.3,0.2,0.5,0.2c0.4,0,0.7-0.1,1-0.3c0.3-0.2,0.5-0.5,0.5-0.9V33.9
		 M79.7,35.7c0,0.3,0,0.6,0.1,0.7c0.1,0.1,0.1,0.2,0.3,0.2v0.2h-1.8c-0.1-0.1-0.1-0.3-0.1-0.3c0-0.1,0-0.2,0-0.4
		c-0.3,0.3-0.5,0.5-0.8,0.6c-0.4,0.2-0.8,0.3-1.3,0.3c-0.5,0-1-0.1-1.3-0.4c-0.4-0.3-0.6-0.8-0.6-1.4c0-0.6,0.2-1,0.5-1.4
		c0.3-0.3,0.8-0.5,1.3-0.6l1.5-0.2c0.2,0,0.3-0.1,0.4-0.1c0.1-0.1,0.2-0.2,0.2-0.3c0-0.3-0.1-0.5-0.4-0.6c-0.2-0.1-0.4-0.1-0.7-0.1
		c-0.4,0-0.7,0.1-0.8,0.3c-0.1,0.1-0.2,0.3-0.2,0.6h-1.6c0.1-0.8,0.4-1.4,1-1.8c0.4-0.2,1-0.4,1.8-0.4c0.6,0,1.1,0.1,1.6,0.3
		c0.6,0.3,0.9,0.8,0.9,1.5V35.7z"/>
	<path class="st0" d="M87.3,36.9h-1.7v-3.7c0-0.3-0.1-0.6-0.2-0.8c-0.2-0.3-0.5-0.4-0.9-0.4c-0.4,0-0.7,0.1-0.9,0.4
		c-0.3,0.3-0.4,0.6-0.4,1.1v3.5h-1.7v-6.1h1.6v0.9h0c0.2-0.3,0.4-0.5,0.6-0.7c0.4-0.3,0.8-0.4,1.3-0.4c0.7,0,1.2,0.2,1.6,0.5
		c0.4,0.4,0.6,0.9,0.6,1.5V36.9"/>
	<polyline class="st0" points="97.1,36.9 95.3,36.9 95.3,30.1 92.6,30.1 92.6,28.6 99.7,28.6 99.7,30.1 97.1,30.1 97.1,36.9 	"/>
	<path class="st0" d="M101.3,30.8h1.6v1.1h0c0.2-0.4,0.4-0.7,0.6-0.9c0.3-0.2,0.7-0.4,1.2-0.4l0.3,0v1.7c-0.1,0-0.2,0-0.2,0
		c-0.1,0-0.1,0-0.2,0c-0.6,0-1.1,0.2-1.3,0.5c-0.2,0.2-0.3,0.6-0.3,1v3.2h-1.7V30.8"/>
	<path class="st0" d="M110.1,33.9c-0.1,0.1-0.2,0.1-0.4,0.2c-0.2,0.1-0.4,0.1-0.7,0.2c-0.4,0.1-0.6,0.2-0.8,0.3
		c-0.2,0.1-0.3,0.4-0.3,0.7c0,0.3,0.1,0.5,0.3,0.6c0.1,0.1,0.3,0.2,0.5,0.2c0.4,0,0.7-0.1,1-0.3c0.3-0.2,0.5-0.5,0.5-0.9V33.9
		 M111.7,35.7c0,0.3,0,0.6,0.1,0.7c0.1,0.1,0.1,0.2,0.3,0.2v0.2h-1.8c0-0.1-0.1-0.3-0.1-0.3c0-0.1,0-0.2,0-0.4
		c-0.3,0.3-0.5,0.5-0.7,0.6c-0.4,0.2-0.8,0.3-1.3,0.3c-0.5,0-1-0.1-1.3-0.4c-0.4-0.3-0.6-0.8-0.6-1.4c0-0.6,0.2-1,0.5-1.4
		c0.3-0.3,0.8-0.5,1.3-0.6l1.5-0.2c0.2,0,0.3-0.1,0.4-0.1c0.1-0.1,0.2-0.2,0.2-0.3c0-0.3-0.1-0.5-0.4-0.6c-0.2-0.1-0.4-0.1-0.7-0.1
		c-0.4,0-0.7,0.1-0.8,0.3c-0.1,0.1-0.2,0.3-0.2,0.6h-1.6c0.1-0.8,0.4-1.4,1-1.8c0.4-0.2,1-0.4,1.8-0.4c0.6,0,1.1,0.1,1.6,0.3
		c0.6,0.3,0.9,0.8,0.9,1.5V35.7z"/>
	<path class="st0" d="M119.3,36.9h-1.7v-3.7c0-0.3-0.1-0.6-0.2-0.8c-0.2-0.3-0.5-0.4-0.9-0.4c-0.4,0-0.7,0.1-1,0.4
		c-0.3,0.3-0.4,0.6-0.4,1.1v3.5h-1.7v-6.1h1.6v0.9h0c0.2-0.3,0.4-0.5,0.6-0.7c0.4-0.3,0.8-0.4,1.3-0.4c0.7,0,1.2,0.2,1.6,0.5
		c0.4,0.4,0.6,0.9,0.6,1.5V36.9"/>
	<path class="st0" d="M124.9,32.6c0-0.3-0.1-0.4-0.2-0.6c-0.2-0.2-0.5-0.2-0.9-0.2c-0.4,0-0.7,0.1-0.8,0.2c-0.1,0.1-0.2,0.2-0.2,0.4
		c0,0.2,0.1,0.3,0.4,0.4c0.2,0.1,0.5,0.2,1,0.2c0.8,0.2,1.4,0.3,1.7,0.5c0.6,0.3,0.9,0.8,0.9,1.3c0,0.8-0.3,1.4-1,1.7
		c-0.5,0.3-1.1,0.4-1.8,0.4c-0.8,0-1.5-0.2-2.1-0.5c-0.6-0.4-1-0.9-1-1.7h1.7c0,0.3,0.1,0.5,0.3,0.7c0.2,0.2,0.6,0.3,1.1,0.3
		c0.4,0,0.7-0.1,0.9-0.2c0.1-0.1,0.2-0.3,0.2-0.4c0-0.2-0.1-0.3-0.4-0.5c-0.2-0.1-0.5-0.1-1-0.2c-0.8-0.2-1.3-0.3-1.7-0.5
		c-0.6-0.3-0.8-0.8-0.8-1.4c0-0.5,0.2-1,0.5-1.4c0.4-0.5,1.1-0.7,2-0.7c0.8,0,1.4,0.1,1.8,0.4c0.6,0.3,0.9,0.9,1,1.7H124.9"/>
	<path class="st0" d="M130.4,35.2c0.3,0.4,0.6,0.5,1.1,0.5c0.5,0,0.8-0.2,1.1-0.7c0.2-0.3,0.3-0.7,0.3-1.2c0-0.5-0.1-1-0.3-1.3
		c-0.2-0.4-0.6-0.6-1.1-0.6c-0.5,0-0.9,0.2-1.1,0.6c-0.2,0.3-0.3,0.8-0.3,1.3C130.1,34.5,130.2,34.9,130.4,35.2 M130.1,31.6
		L130.1,31.6c0.2-0.3,0.4-0.6,0.7-0.7c0.3-0.2,0.8-0.3,1.3-0.3c0.7,0,1.4,0.3,1.8,0.8c0.5,0.6,0.8,1.4,0.8,2.4
		c0,0.9-0.2,1.7-0.6,2.3c-0.5,0.7-1.2,1-2,1c-0.5,0-0.9-0.1-1.3-0.4c-0.2-0.1-0.4-0.3-0.5-0.6h0v2.3h-1.7v-7.6h1.6V31.6z"/>
	<path class="st0" d="M140.1,32.6c-0.2-0.4-0.6-0.6-1.2-0.6c-0.6,0-1,0.2-1.2,0.6c-0.2,0.3-0.3,0.7-0.3,1.2c0,0.5,0.1,0.9,0.3,1.2
		c0.2,0.4,0.6,0.6,1.2,0.6c0.5,0,0.9-0.2,1.2-0.6c0.2-0.3,0.3-0.7,0.3-1.2C140.4,33.3,140.3,32.9,140.1,32.6 M141.1,36.3
		c-0.6,0.5-1.3,0.8-2.2,0.8c-0.9,0-1.6-0.3-2.2-0.8c-0.6-0.6-1-1.4-1-2.4c0-1,0.3-1.9,1-2.5c0.6-0.5,1.3-0.8,2.2-0.8
		c0.9,0,1.6,0.3,2.2,0.8c0.6,0.6,1,1.4,1,2.5C142.1,34.9,141.8,35.7,141.1,36.3z"/>
	<path class="st0" d="M143.8,30.8h1.6v1.1h0c0.2-0.4,0.4-0.7,0.6-0.9c0.3-0.2,0.7-0.4,1.2-0.4l0.3,0v1.7c-0.1,0-0.2,0-0.2,0
		c-0.1,0-0.1,0-0.2,0c-0.6,0-1.1,0.2-1.3,0.5c-0.2,0.2-0.3,0.6-0.3,1v3.2h-1.7V30.8"/>
	<path class="st0" d="M150.8,30.7h1v1.1h-1v3.5c0,0.2,0,0.3,0.1,0.4c0.1,0.1,0.3,0.1,0.6,0.1l0.3,0V37l-0.3,0l-0.5,0h-0.2
		c-0.7,0-1.2-0.1-1.4-0.4c-0.2-0.2-0.3-0.5-0.3-1v-3.9h-0.8v-1.1h0.8V29h1.7V30.7"/>
	<path class="st0" d="M157.4,33.9c-0.1,0.1-0.2,0.1-0.4,0.2c-0.2,0.1-0.4,0.1-0.8,0.2c-0.4,0.1-0.6,0.2-0.8,0.3
		c-0.2,0.1-0.3,0.4-0.3,0.7c0,0.3,0.1,0.5,0.3,0.6c0.1,0.1,0.3,0.2,0.5,0.2c0.4,0,0.7-0.1,1-0.3c0.3-0.2,0.5-0.5,0.5-0.9V33.9
		 M159,35.7c0,0.3,0,0.6,0.1,0.7c0.1,0.1,0.1,0.2,0.3,0.2v0.2h-1.8c0-0.1-0.1-0.3-0.1-0.3c0-0.1,0-0.2,0-0.4
		c-0.3,0.3-0.5,0.5-0.8,0.6c-0.4,0.2-0.8,0.3-1.3,0.3c-0.5,0-1-0.1-1.3-0.4c-0.4-0.3-0.6-0.8-0.6-1.4c0-0.6,0.2-1,0.5-1.4
		c0.3-0.3,0.8-0.5,1.3-0.6l1.5-0.2c0.2,0,0.3-0.1,0.4-0.1c0.1-0.1,0.2-0.2,0.2-0.3c0-0.3-0.1-0.5-0.4-0.6c-0.2-0.1-0.4-0.1-0.7-0.1
		c-0.4,0-0.7,0.1-0.8,0.3c-0.1,0.1-0.2,0.3-0.2,0.6h-1.6c0.1-0.8,0.4-1.4,1-1.8c0.4-0.2,1-0.4,1.8-0.4c0.6,0,1.2,0.1,1.6,0.3
		c0.6,0.3,0.9,0.8,0.9,1.5V35.7z"/>
	<path class="st0" d="M162.8,30.7h1v1.1h-1v3.5c0,0.2,0,0.3,0.1,0.4c0.1,0.1,0.3,0.1,0.6,0.1l0.3,0V37l-0.3,0l-0.5,0h-0.2
		c-0.7,0-1.2-0.1-1.4-0.4c-0.2-0.2-0.3-0.5-0.3-1v-3.9h-0.8v-1.1h0.8V29h1.7V30.7"/>
	<path class="st0" d="M167.7,30.8 M166,30.8h1.7v6H166V30.8z M167.7,30.1H166v-1.5h1.7V30.1z"/>
	<path class="st0" d="M174,32.6c-0.2-0.4-0.6-0.6-1.2-0.6c-0.6,0-1,0.2-1.2,0.6c-0.2,0.3-0.3,0.7-0.3,1.2c0,0.5,0.1,0.9,0.3,1.2
		c0.2,0.4,0.6,0.6,1.2,0.6c0.5,0,0.9-0.2,1.2-0.6c0.2-0.3,0.3-0.7,0.3-1.2C174.3,33.3,174.2,32.9,174,32.6 M175,36.3
		c-0.6,0.5-1.3,0.8-2.2,0.8c-0.9,0-1.6-0.3-2.2-0.8c-0.6-0.6-1-1.4-1-2.4c0-1,0.3-1.9,1-2.5c0.6-0.5,1.3-0.8,2.2-0.8
		c0.9,0,1.6,0.3,2.2,0.8c0.7,0.6,1,1.4,1,2.5C176,34.9,175.7,35.7,175,36.3z"/>
	<path class="st0" d="M183.3,36.9h-1.7v-3.7c0-0.3-0.1-0.6-0.2-0.8c-0.2-0.3-0.5-0.4-0.9-0.4c-0.4,0-0.7,0.1-1,0.4
		c-0.2,0.3-0.4,0.6-0.4,1.1v3.5h-1.7v-6.1h1.6v0.9h0c0.2-0.3,0.4-0.5,0.6-0.7c0.4-0.3,0.8-0.4,1.3-0.4c0.6,0,1.2,0.2,1.6,0.5
		c0.4,0.4,0.6,0.9,0.6,1.5V36.9"/>
	<path class="st0" d="M194.6,31.3c-0.1-0.4-0.3-0.7-0.4-0.9c-0.3-0.3-0.8-0.5-1.4-0.5c-0.6,0-1,0.2-1.4,0.5
		c-0.5,0.5-0.7,1.3-0.7,2.3c0,0.8,0.2,1.5,0.5,1.9c0.4,0.6,0.9,0.9,1.6,0.9c0.5,0,0.9-0.1,1.2-0.4c0.3-0.3,0.5-0.7,0.6-1.2h1.8
		c-0.2,0.9-0.6,1.7-1.2,2.2c-0.6,0.6-1.5,0.9-2.5,0.9c-1.2,0-2.1-0.4-2.8-1.1c-0.7-0.8-1.1-1.8-1.1-3.2c0-1.4,0.4-2.4,1.1-3.2
		c0.7-0.7,1.6-1.1,2.8-1.1c1.2,0,2.1,0.3,2.8,1c0.6,0.5,0.9,1.2,0.9,1.9H194.6"/>
	<path class="st0" d="M202.2,32.6c-0.2-0.4-0.6-0.6-1.2-0.6c-0.6,0-1,0.2-1.2,0.6c-0.2,0.3-0.3,0.7-0.3,1.2c0,0.5,0.1,0.9,0.3,1.2
		c0.2,0.4,0.6,0.6,1.2,0.6c0.5,0,0.9-0.2,1.2-0.6c0.2-0.3,0.3-0.7,0.3-1.2C202.5,33.3,202.4,32.9,202.2,32.6 M203.2,36.3
		c-0.6,0.5-1.3,0.8-2.2,0.8c-0.9,0-1.6-0.3-2.2-0.8c-0.7-0.6-1-1.4-1-2.4c0-1,0.3-1.9,1-2.5c0.6-0.5,1.3-0.8,2.2-0.8
		c0.9,0,1.6,0.3,2.2,0.8c0.7,0.6,1,1.4,1,2.5C204.2,34.9,203.8,35.7,203.2,36.3z"/>
	<path class="st0" d="M205.8,30.8h1.6v1.1h0c0.2-0.4,0.4-0.7,0.6-0.9c0.3-0.2,0.7-0.4,1.2-0.4l0.3,0v1.7c-0.1,0-0.2,0-0.2,0
		c-0.1,0-0.1,0-0.2,0c-0.6,0-1.1,0.2-1.3,0.5c-0.2,0.2-0.3,0.6-0.3,1v3.2h-1.7V30.8"/>
	<path class="st0" d="M226.8,30.8h1.6v1.1h0c0.2-0.4,0.4-0.7,0.6-0.9c0.3-0.2,0.7-0.4,1.2-0.4l0.3,0v1.7c-0.1,0-0.2,0-0.2,0
		c-0.1,0-0.1,0-0.2,0c-0.6,0-1.1,0.2-1.3,0.5c-0.2,0.2-0.3,0.6-0.3,1v3.2h-1.7V30.8"/>
	<path class="st0" d="M213,35.2c0.3,0.4,0.6,0.5,1.1,0.5c0.5,0,0.8-0.2,1.1-0.7c0.2-0.3,0.3-0.7,0.3-1.2c0-0.5-0.1-1-0.3-1.3
		c-0.2-0.4-0.6-0.6-1.1-0.6c-0.5,0-0.9,0.2-1.1,0.6c-0.2,0.3-0.3,0.8-0.3,1.3C212.6,34.5,212.7,34.9,213,35.2 M212.6,31.6
		L212.6,31.6c0.2-0.3,0.4-0.6,0.7-0.7c0.3-0.2,0.8-0.3,1.3-0.3c0.7,0,1.4,0.3,1.8,0.8c0.5,0.6,0.8,1.4,0.8,2.4
		c0,0.9-0.2,1.7-0.6,2.3c-0.5,0.7-1.2,1-2,1c-0.5,0-0.9-0.1-1.3-0.4c-0.2-0.1-0.4-0.3-0.5-0.6h0v2.3H211v-7.6h1.6V31.6z"/>
	<path class="st0" d="M222.7,32.6c-0.2-0.4-0.6-0.6-1.2-0.6c-0.6,0-1,0.2-1.2,0.6c-0.2,0.3-0.3,0.7-0.3,1.2c0,0.5,0.1,0.9,0.3,1.2
		c0.2,0.4,0.6,0.6,1.2,0.6c0.5,0,0.9-0.2,1.2-0.6c0.2-0.3,0.3-0.7,0.3-1.2C223,33.3,222.9,32.9,222.7,32.6 M223.7,36.3
		c-0.6,0.5-1.3,0.8-2.2,0.8c-0.9,0-1.6-0.3-2.2-0.8c-0.6-0.6-1-1.4-1-2.4c0-1,0.3-1.9,1-2.5c0.6-0.5,1.3-0.8,2.2-0.8
		c0.9,0,1.6,0.3,2.2,0.8c0.6,0.6,1,1.4,1,2.5C224.7,34.9,224.4,35.7,223.7,36.3z"/>
	<path class="st0" d="M236.2,33.9c-0.1,0.1-0.2,0.1-0.4,0.2c-0.2,0.1-0.4,0.1-0.8,0.2c-0.4,0.1-0.6,0.2-0.8,0.3
		c-0.2,0.1-0.3,0.4-0.3,0.7c0,0.3,0.1,0.5,0.3,0.6c0.1,0.1,0.3,0.2,0.5,0.2c0.4,0,0.7-0.1,1-0.3c0.3-0.2,0.5-0.5,0.5-0.9V33.9
		 M237.8,35.7c0,0.3,0,0.6,0.1,0.7c0.1,0.1,0.1,0.2,0.3,0.2v0.2h-1.8c-0.1-0.1-0.1-0.3-0.1-0.3c0-0.1,0-0.2,0-0.4
		c-0.3,0.3-0.5,0.5-0.8,0.6c-0.4,0.2-0.8,0.3-1.3,0.3c-0.5,0-1-0.1-1.3-0.4c-0.4-0.3-0.6-0.8-0.6-1.4c0-0.6,0.2-1,0.5-1.4
		c0.3-0.3,0.8-0.5,1.3-0.6l1.5-0.2c0.2,0,0.3-0.1,0.4-0.1c0.1-0.1,0.2-0.2,0.2-0.3c0-0.3-0.1-0.5-0.4-0.6c-0.2-0.1-0.4-0.1-0.7-0.1
		c-0.4,0-0.7,0.1-0.8,0.3c-0.1,0.1-0.2,0.3-0.2,0.6h-1.6c0.1-0.8,0.4-1.4,1-1.8c0.4-0.2,1-0.4,1.8-0.4c0.6,0,1.2,0.1,1.6,0.3
		c0.6,0.3,0.9,0.8,0.9,1.5V35.7z"/>
	<path class="st0" d="M241.6,30.7h1v1.1h-1v3.5c0,0.2,0,0.3,0.1,0.4c0.1,0.1,0.3,0.1,0.6,0.1l0.3,0V37l-0.3,0l-0.5,0h-0.2
		c-0.7,0-1.2-0.1-1.4-0.4c-0.2-0.2-0.3-0.5-0.3-1v-3.9h-0.8v-1.1h0.8V29h1.7V30.7"/>
	<path class="st0" d="M246.5,30.8 M244.8,30.8h1.7v6h-1.7V30.8z M246.5,30.1h-1.7v-1.5h1.7V30.1z"/>
	<path class="st0" d="M252.9,32.6c-0.2-0.4-0.6-0.6-1.2-0.6c-0.6,0-1,0.2-1.2,0.6c-0.2,0.3-0.3,0.7-0.3,1.2c0,0.5,0.1,0.9,0.3,1.2
		c0.2,0.4,0.7,0.6,1.2,0.6c0.5,0,0.9-0.2,1.2-0.6c0.2-0.3,0.3-0.7,0.3-1.2C253.1,33.3,253,32.9,252.9,32.6 M253.9,36.3
		c-0.6,0.5-1.3,0.8-2.2,0.8c-0.9,0-1.6-0.3-2.2-0.8c-0.6-0.6-1-1.4-1-2.4c0-1,0.3-1.9,1-2.5c0.6-0.5,1.3-0.8,2.2-0.8
		c0.9,0,1.6,0.3,2.2,0.8c0.6,0.6,1,1.4,1,2.5C254.8,34.9,254.5,35.7,253.9,36.3z"/>
	<path class="st0" d="M262.1,36.9h-1.7v-3.7c0-0.3-0.1-0.6-0.2-0.8c-0.2-0.3-0.5-0.4-0.9-0.4c-0.4,0-0.7,0.1-1,0.4
		c-0.3,0.3-0.4,0.6-0.4,1.1v3.5h-1.7v-6.1h1.6v0.9h0c0.2-0.3,0.4-0.5,0.6-0.7c0.4-0.3,0.8-0.4,1.3-0.4c0.6,0,1.2,0.2,1.6,0.5
		c0.4,0.4,0.6,0.9,0.6,1.5V36.9"/>
</g>
<g id="Layer_2">
	<rect x="-188.2" y="-515.1" class="st1" width="595.3" height="841.9"/>
</g>
</svg>
