<svg xmlns="http://www.w3.org/2000/svg" version="1.1" xmlns:xlink="http://www.w3.org/1999/xlink" width="512" height="512" x="0" y="0" viewBox="0 0 512 512" style="enable-background:new 0 0 512 512" xml:space="preserve" class=""><g><circle cx="256" cy="256" r="256" style="" fill="#006941" data-original="#dcd732" class="" opacity="1"></circle><path d="M98.898 138.632v234.735l137.918 137.918c6.334.47 12.73.715 19.184.715 141.385 0 256-114.615 256-256 0-6.454-.245-12.85-.714-19.184l-98.184-98.184h-93.933l-32.878-32.878-187.393 32.878z" style="" fill="#006941" data-original="#a0af32" class="" opacity="1"></path><path d="m98.898 373.368 187.394 32.878V105.754L98.898 138.632zM295.41 138.63H413.1v234.74H295.41z" style="" fill="#ffffff" data-original="#006941" class="" opacity="1"></path><path d="M295.41 162.46H325v32.22h-29.59zM295.41 214.08H325v32.22h-29.59zM295.41 265.7H325v32.22h-29.59zM295.41 317.32H325v32.22h-29.59zM340.12 162.46h51.618v32.22H340.12zM340.12 214.08h51.618v32.22H340.12zM340.12 265.7h51.618v32.22H340.12zM340.12 317.32h51.618v32.22H340.12zM226.195 207.943H204.81l-16.172 28.707-16.171-28.707h-21.386l26.865 47.688-29.495 52.358h21.385l18.802-33.377 18.803 33.377h21.385l-29.495-52.358z" style="" fill="#006941" data-original="#ffffff" class="" opacity="1"></path></g></svg>