<?xml version="1.0" encoding="utf-8"?>
<!-- Generator: Adobe Illustrator 25.0.1, SVG Export Plug-In . SVG Version: 6.00 Build 0)  -->
<svg version="1.1" id="레이어_1" xmlns="http://www.w3.org/2000/svg" xmlns:xlink="http://www.w3.org/1999/xlink" x="0px"
	 y="0px" viewBox="0 0 512 512" style="enable-background:new 0 0 512 512;" xml:space="preserve">
<style type="text/css">
	.st0{fill:none;stroke:#0E1F4C;stroke-width:32;stroke-linecap:round;stroke-miterlimit:10;}
	.st1{fill:none;stroke:#0E1F4C;stroke-width:32;stroke-linecap:round;stroke-linejoin:round;}
	.st2{fill:#0E1F4C;}
</style>
<line class="st0" x1="85" y1="46" x2="309" y2="46"/>
<line class="st0" x1="53" y1="107" x2="341" y2="107"/>
<path class="st1" d="M453.5,246v209c0,22.1-24.4,40-54.4,40H72.4C42.4,495,18,477.1,18,455V215c0-22.1,24.4-40,54.4-40h202.9"/>
<path class="st2" d="M506.8,56.6c-6-6.6-16.1-7-22.7-1.1c-0.2,0.2-0.4,0.3-0.5,0.5l-12.4,12.3c-3.1,3.1-3.1,8.2,0,11.3l11.3,11.3
	c3.1,3.1,8.2,3.1,11.3,0c0,0,0,0,0,0l12.1-12C512,72.9,512.6,62.9,506.8,56.6z"/>
<path class="st2" d="M446.2,93.3L265.7,273.5c-1.1,1.1-1.9,2.4-2.3,3.9l-8.4,24.9c-0.6,2.1,0.6,4.2,2.6,4.9c0.7,0.2,1.5,0.2,2.2,0
	l24.9-8.4c1.5-0.4,2.8-1.2,3.9-2.3L468.8,116c3.5-3.5,3.5-9.2,0-12.7l-10-10C455.4,89.8,449.7,89.8,446.2,93.3z"/>
</svg>
