<?xml version="1.0" encoding="utf-8"?>
<!-- Generator: Adobe Illustrator 25.0.1, SVG Export Plug-In . SVG Version: 6.00 Build 0)  -->
<svg version="1.1" id="레이어_1" xmlns="http://www.w3.org/2000/svg" xmlns:xlink="http://www.w3.org/1999/xlink" x="0px"
	 y="0px" viewBox="0 0 512 512" style="enable-background:new 0 0 512 512;" xml:space="preserve">
<style type="text/css">
	.st0{fill:#FFFFFF;}
</style>
<g>
	<path class="st0" d="M423.38,512h-68.92c-10.88,0-19.69-8.82-19.69-19.69c0-10.88,8.82-19.69,19.69-19.69h68.92
		c27.15,0,49.23-22.09,49.23-49.23v-68.92c0-10.88,8.82-19.69,19.69-19.69c10.88,0,19.69,8.82,19.69,19.69v68.92
		C512,472.25,472.25,512,423.38,512z"/>
</g>
<g>
	<path class="st0" d="M492.31,177.23c-10.88,0-19.69-8.82-19.69-19.69V88.62c0-27.15-22.09-49.23-49.23-49.23h-68.92
		c-10.88,0-19.69-8.82-19.69-19.69S343.59,0,354.46,0h68.92C472.25,0,512,39.75,512,88.62v68.92
		C512,168.41,503.18,177.23,492.31,177.23z"/>
</g>
<g>
	<path class="st0" d="M157.54,512H88.62C39.75,512,0,472.25,0,423.38v-68.92c0-10.88,8.82-19.69,19.69-19.69s19.69,8.82,19.69,19.69
		v68.92c0,27.15,22.08,49.23,49.23,49.23h68.92c10.88,0,19.69,8.82,19.69,19.69C177.23,503.18,168.41,512,157.54,512z"/>
</g>
<g>
	<path class="st0" d="M19.69,177.23C8.82,177.23,0,168.41,0,157.54V88.62C0,39.75,39.75,0,88.62,0h68.92
		c10.88,0,19.69,8.82,19.69,19.69s-8.82,19.69-19.69,19.69H88.62c-27.15,0-49.23,22.08-49.23,49.23v68.92
		C39.38,168.41,30.57,177.23,19.69,177.23z"/>
</g>
<g>
	<path class="st0" d="M256,374.77c-65.15,0-118.15-53-118.15-118.15s53-118.15,118.15-118.15s118.15,53,118.15,118.15
		S321.15,374.77,256,374.77z M256,177.85c-43.43,0-78.77,35.34-78.77,78.77c0,43.43,35.34,78.77,78.77,78.77
		c43.43,0,78.77-35.34,78.77-78.77C334.77,213.18,299.43,177.85,256,177.85z"/>
</g>
</svg>
