<?xml version="1.0" encoding="utf-8"?>
<!-- Generator: Adobe Illustrator 25.0.1, SVG Export Plug-In . SVG Version: 6.00 Build 0)  -->
<svg version="1.1" id="레이어_1" xmlns="http://www.w3.org/2000/svg" xmlns:xlink="http://www.w3.org/1999/xlink" x="0px"
	 y="0px" viewBox="0 0 512 512" style="enable-background:new 0 0 512 512;" xml:space="preserve">
<style type="text/css">
	.st0{fill:none;stroke:#FFFFFF;stroke-width:32;stroke-linecap:round;stroke-linejoin:round;}
</style>
<path class="st0" d="M398.9,28.7c-6.9-6.9-16.2-10.7-25.9-10.7H70.9C41.7,18,18,41.7,18,70.9c0,0,0,0,0,0v370.2
	c0,29.2,23.7,52.9,52.9,52.9c0,0,0,0,0,0h370.2c29.2-0.1,52.8-23.7,52.9-52.9V138.9c0-9.7-3.9-19-10.7-25.9L398.9,28.7z M256,439.1
	c-40.4,0-73.2-32.8-73.2-73.2s32.8-73.2,73.2-73.2s73.2,32.8,73.2,73.2c0.1,40.4-32.7,73.2-73,73.2
	C256.1,439.1,256.1,439.1,256,439.1z M310.9,182.8H91.2c-10.1,0-18.3-8.2-18.3-18.3V91.2c0-10.1,8.2-18.3,18.3-18.3h219.7
	c10.1,0,18.3,8.2,18.3,18.3v73.2C329.2,174.6,321,182.8,310.9,182.8z"/>
</svg>
