<?xml version="1.0" encoding="utf-8"?>
<!-- Generator: Adobe Illustrator 25.0.1, SVG Export Plug-In . SVG Version: 6.00 Build 0)  -->
<svg version="1.1" id="레이어_1" xmlns="http://www.w3.org/2000/svg" xmlns:xlink="http://www.w3.org/1999/xlink" x="0px"
	 y="0px" viewBox="0 0 512 512" style="enable-background:new 0 0 512 512;" xml:space="preserve">
<style type="text/css">
	.st0{fill:none;stroke:#0E1F4C;stroke-width:32;stroke-linejoin:round;}
	.st1{fill:none;stroke:#0E1F4C;stroke-width:32;stroke-linecap:round;stroke-linejoin:round;}
</style>
<path class="st0" d="M174.4,108.9h255.1c36.2,0,65.5,29.3,65.5,65.5v255.1c0,36.2-29.3,65.5-65.5,65.5H174.4
	c-36.2,0-65.5-29.3-65.5-65.5V174.4C108.9,138.2,138.2,108.9,174.4,108.9z"/>
<path class="st1" d="M402.5,108.9l0.6-27.6C403,45.9,374.2,17.1,338.7,17H90.5C50,17.1,17.1,50,17,90.5v248.2
	c0.1,35.5,28.9,64.2,64.3,64.3h27.6"/>
<line class="st1" x1="302" y1="210" x2="302" y2="393.9"/>
<line class="st1" x1="393.9" y1="302" x2="210" y2="302"/>
</svg>
