<?xml version="1.0" encoding="utf-8"?>
<!-- Generator: Adobe Illustrator 25.0.1, SVG Export Plug-In . SVG Version: 6.00 Build 0)  -->
<svg version="1.1" id="레이어_1" xmlns="http://www.w3.org/2000/svg" xmlns:xlink="http://www.w3.org/1999/xlink" x="0px"
	 y="0px" viewBox="0 0 512 512" style="enable-background:new 0 0 512 512;" xml:space="preserve">
<style type="text/css">
	.st0{fill:none;stroke:#FFFFFF;stroke-width:32;stroke-linecap:round;stroke-linejoin:round;}
</style>
<path class="st0" d="M263.02,184.97c-39.23-3.87-74.17,24.79-78.05,64.02c-3.87,39.23,24.79,74.17,64.02,78.05
	c39.23,3.87,74.17-24.79,78.05-64.02c0.46-4.67,0.46-9.37,0-14.03C323.63,215.14,296.86,188.37,263.02,184.97z M434.88,256
	c-0.05,7.76-0.62,15.51-1.71,23.19l50.42,39.55c4.53,3.76,5.69,10.24,2.73,15.34l-47.7,82.53c-2.99,5.04-9.18,7.2-14.66,5.12
	l-50.08-20.16c-5.61-2.23-11.97-1.5-16.92,1.95c-7.64,5.26-15.67,9.94-24.02,13.99c-5.33,2.59-9.02,7.67-9.84,13.54l-7.51,53.41
	c-1.02,5.82-6.01,10.1-11.91,10.23h-95.4c-5.8-0.1-10.75-4.21-11.92-9.89l-7.49-53.33c-0.85-5.94-4.62-11.05-10.04-13.63
	c-8.34-4.03-16.34-8.71-23.93-14.02c-4.94-3.44-11.27-4.15-16.85-1.91l-50.07,20.15c-5.48,2.09-11.66-0.07-14.66-5.11l-47.7-82.53
	c-2.96-5.09-1.81-11.58,2.73-15.34l42.62-33.46c4.74-3.77,7.26-9.67,6.69-15.7c-0.4-4.65-0.65-9.29-0.65-13.94
	c0-4.65,0.23-9.22,0.65-13.77c0.51-5.99-2.04-11.84-6.77-15.55l-42.59-33.46c-4.46-3.77-5.58-10.2-2.64-15.26l47.7-82.53
	c2.99-5.04,9.18-7.2,14.66-5.12l50.08,20.16c5.61,2.23,11.97,1.5,16.92-1.95c7.64-5.26,15.67-9.94,24.02-13.99
	c5.33-2.59,9.02-7.67,9.84-13.54l7.51-53.41c1.02-5.82,6.01-10.1,11.91-10.23h95.4c5.8,0.1,10.75,4.21,11.92,9.89l7.49,53.33
	c0.85,5.94,4.62,11.05,10.04,13.63c8.34,4.03,16.34,8.71,23.93,14.02c4.94,3.44,11.27,4.15,16.85,1.91l50.07-20.15
	c5.48-2.09,11.66,0.07,14.66,5.11l47.7,82.53c2.96,5.09,1.81,11.58-2.73,15.34l-42.62,33.46c-4.76,3.75-7.3,9.66-6.75,15.7
	C434.64,246.71,434.88,251.35,434.88,256z"/>
</svg>
